. 
  
http://www.torrentday.com/        :     The Hottest Private Tracker On The Net!!!
 
http://www.torrentday.com          :     Once & For all ;)


               www . TorrentDay . Com 

(((((((((((((= Enjoy No RAR releases =))))))))))))))))))))


...................................NFO:....................................

.[img]http://img268.imageshack.us/img268/5794/jackug.jpg[/img]

[color=blue][size=5][b]Jack Goes Boating 2010 BDRip XVID AC3 HQ Hive-CM8[/b][/size][/color]




[b]Thx Hive

CM8 Doing It Right The First Time :D

Why download a touched up rip of a rip BRrip
Get the real deal BDRip
Enjoy

Source US Bluray

Video: 720x384 @bitrate 1700 2pass
Audio: True HD AC3 640 to AC3 5.1 @448
Sample: yes included
Subs: yes in srt /subs[/b]
 
http://www.imdb.com/title/tt1278379/


General
Complete name                    : Jack.Goes.Boating.2010.BDRip.XVID.AC3.HQ.Hive-CM8.avi
Format                           : AVI
Format/Info                      : Audio Video Interleave
File size                        : 1.37 GiB
Duration                         : 1h 30mn
Overall bit rate                 : 2 157 Kbps
Writing application              : Nandub v1.0rc2
Writing library                  : Nandub build 1853/release

Video
ID                               : 0
Format                           : MPEG-4 Visual
Format profile                   : Advanced Simple@L5
Format settings, BVOP            : Yes
Format settings, QPel            : Yes
Format settings, GMC             : No warppoints
Format settings, Matrix          : Default (H.263)
Muxing mode                      : Packed bitstream
Codec ID                         : XVID
Codec ID/Hint                    : XviD
Duration                         : 1h 30mn
Bit rate                         : 1 700 Kbps
Width                            : 720 pixels
Height                           : 384 pixels
Display aspect ratio             : 1.850
Frame rate                       : 23.976 fps
Color space                      : YUV
Chroma subsampling               : 4:2:0
Bit depth                        : 8 bits
Scan type                        : Progressive
Bits/(Pixel*Frame)               : 0.256
Stream size                      : 1.08 GiB (79%)
Writing library                  : XviD 1.2.1 (UTC 2008-12-04)

Audio
ID                               : 1
Format                           : AC-3
Format/Info                      : Audio Coding 3
Mode extension                   : CM (complete main)
Codec ID                         : 2000
Duration                         : 1h 30mn
Bit rate mode                    : Constant
Bit rate                         : 448 Kbps
Channel(s)                       : 6 channels
Channel positions                : Front: L C R, Side: L R, LFE
Sampling rate                    : 48.0 KHz
Bit depth                        : 16 bits
Stream size                      : 291 MiB (21%)
Alignment                        : Split accross interleaves
Interleave, duration             : 42 ms (1.00 video frame)
Interleave, preload duration     : 500 ms




Philip Seymour Hoffman ... Jack
John Ortiz ... Clyde
Richard Petrocelli .... Uncle Frank
Thomas McCarthy ... Dr. Bob
Amy Ryan ... Connie
Daphne Rubin-Vega ... Lucy
Lola Glaudini ... Italian Woman
Isaac Schinazi ... Pastry Chef
Rafael Osorio ... Ungainly Swimmer (as Ralph
Stephen Adly Guirgis .... MTA Worker
Mason Pettit .... Drunk Man on Subway
Trevor Long ... Waldorf Doorman
Stephen Mailer ... Happy Husband
Elizabeth Rainer .... Happy Wife
Theodore Mailer .... Young Son




A limo driver's blind date sparks a tale of love
betrayal, friendship, and grace centered around two
working-class New York City couples



[img]http://img821.imageshack.us/img821/8030/39036022.png[/img]
[img]http://img830.imageshack.us/img830/738/jjaac.png[/img]
[img]http://img834.imageshack.us/img834/6322/jjajaa.png[/img]
[img]http://img513.imageshack.us/img513/6127/jjajajjaaa.png[/img]
[img]http://img163.imageshack.us/img163/3848/jjajjaaa.png[/img]






Greetz

iNK,LUSi,,MAGNET,CLASSiFiED,THC,LEGi0N,IMAGiNE,ViSiON,WBZ,FLAWL3SS,NOVA
Rapeseed,D2U,SAFC,goldadvance,MEMORY100,KaN1vE,Unevano,Pinnz,Wayne,Mr Hive
and all P2P groups 
Great Work Guys :D